
<svg>
  <defs
     id="defs4" />

  <symbol
     transform="translate(-0.3788066,-999.21234)"
     id="layer1" viewBox="0 0 168 52.6366">
    <symbol
       style="fill:none;fill-rule:evenodd;stroke:none;stroke-width:1px;stroke-linecap:butt;stroke-linejoin:round;stroke-opacity:1"
       id="g3338">
      <path
         points="168.27284,1010.4123 168.27284,1038.71 12.988888,1051.25 12.988888,1045.2134 "
         d="m 12.988888,1045.2134 155.283952,-34.8011 0,28.2977 -155.283952,12.54 z"
         style="fill:#e9e9ff;fill-rule:evenodd;stroke:none;stroke-width:1px;stroke-linecap:butt;stroke-linejoin:round;stroke-opacity:1"
         id="path3350" />
      <path
         points="0.27284251,1051.0901 12.988888,1051.25 12.988888,1045.2134 0.27284251,1044.7696 "
         d="m 0.27284251,1044.7696 0,6.3205 12.71604549,0.1599 0,-6.0366 z"
         style="fill:#353564;fill-rule:evenodd;stroke:none;stroke-width:1px;stroke-linecap:butt;stroke-linejoin:round;stroke-opacity:1"
         id="path3340" />
      <path
         points="137.57316,998.61342 168.27284,1010.4123 12.988888,1045.2134 0.27284251,1044.7696 "
         d="M 0.27284251,1044.7696 137.57316,998.61342 l 30.69968,11.79888 -155.283952,34.8011 z"
         style="fill:#4d4d9f;fill-rule:evenodd;stroke:none;stroke-width:1px;stroke-linecap:butt;stroke-linejoin:round;stroke-opacity:1"
         id="path3342" />
      <path
         points="137.57316,1034.4584 168.27284,1038.71 12.988888,1051.25 0.27284251,1051.0901 "
         d="M 0.27284251,1051.0901 137.57316,1034.4584 168.27284,1038.71 12.988888,1051.25 Z"
         style="fill:#afafde;fill-rule:evenodd;stroke:none;stroke-width:1px;stroke-linecap:butt;stroke-linejoin:round;stroke-opacity:1"
         id="path3348" />
      <path
         points="137.57316,1034.4584 168.27284,1038.71 168.27284,1010.4123 137.57316,998.61342 "
         d="m 137.57316,998.61342 0,35.84498 30.69968,4.2516 0,-28.2977 z"
         style="fill:#d7d7ff;fill-rule:evenodd;stroke:none;stroke-width:1px;stroke-linecap:butt;stroke-linejoin:round;stroke-opacity:1"
         id="path3346" />
      <path
         points="137.57316,998.61342 137.57316,1034.4584 0.27284251,1051.0901 0.27284251,1044.7696 "
         d="M 0.27284251,1044.7696 137.57316,998.61342 l 0,35.84498 -137.30031749,16.6317 z"
         style="fill:#8686bf;fill-rule:evenodd;stroke:none;stroke-width:1px;stroke-linecap:butt;stroke-linejoin:round;stroke-opacity:1"
         id="path3344" />
    </symbol>
    <text
       id="text3356"
       y="1042.5132"
       x="19.066629"
       style="font-style:normal;font-variant:normal;font-weight:normal;font-stretch:normal;font-size:5px;line-height:125%;font-family:'Nuosu SIL';-inkscape-font-specification:'Nuosu SIL';letter-spacing:0px;word-spacing:0px;fill:#000000;fill-opacity:1;stroke:none;stroke-width:1px;stroke-linecap:butt;stroke-linejoin:miter;stroke-opacity:1"
       xml:space="preserve"><tspan
         y="1042.5132"
         x="19.066629"
         id="tspan3358" /></text>
    <text
       id="text3360"
       y="1048.4479"
       x="21.465742"
       style="font-style:normal;font-variant:normal;font-weight:normal;font-stretch:normal;font-size:5px;line-height:125%;font-family:'Nuosu SIL';-inkscape-font-specification:'Nuosu SIL';letter-spacing:0px;word-spacing:0px;fill:#000000;fill-opacity:1;stroke:none;stroke-width:1px;stroke-linecap:butt;stroke-linejoin:miter;stroke-opacity:1"
       xml:space="preserve"><tspan
         y="1048.4479"
         x="21.465742"
         id="tspan3362" /></text>
    <text
       transform="matrix(1.1447997,-0.27604129,0,0.87351525,0,0)"
       id="text3364"
       y="1208.6293"
       x="44.30896"
       style="font-style:normal;font-variant:normal;font-weight:normal;font-stretch:normal;font-size:20.16020203px;line-height:125%;font-family:'Nuosu SIL';-inkscape-font-specification:'Nuosu SIL';letter-spacing:0px;word-spacing:0px;fill:#00009b;fill-opacity:1;stroke:none;stroke-width:1px;stroke-linecap:butt;stroke-linejoin:miter;stroke-opacity:1"
       xml:space="preserve"><tspan
         y="1208.6293"
         x="44.30896"
         id="tspan3366">ABOUT </tspan></text>
  </symbol>
</svg>
